# xmcd CD database file
#
# Track frame offsets:
#	150
#	14512
#	25475
#	46337
#	69225
#	82025
#	106775
#	133662
#	155662
#	200650
#	249075
#	293412
#	305925
#
# Disc length: 4261 seconds
#
# Revision: 0
# Processed by: cddbd v1.4PL0 Copyright (c) Steve Scherf et al.
# Submitted via: CDex 1.50beta9
#
DISCID=b110a30d
DTITLE=Various Artist - Jazz milennium
DYEAR=2001
DGENRE=Jazz
TTITLE0=Wes Montgomery - California Dreaming
TTITLE1=Louis Armstrong - Hello, Dolly!
TTITLE2=Oscar Perterson - Tonight
TTITLE3=Chet Baker - Everything Happens to Me
TTITLE4=Miles Davis - Generique
TTITLE5=John Coltrane and Johnny Hartman - Lush Life
TTITLE6=Miles Davis - 'Round Midnight
TTITLE7=Bill Evans - Someday My Prince Will Come
TTITLE8=Sonny Rollins - Moritato
TTITLE9=Wynton Kelly - Kelly Blue
TTITLE10=Chick Corea - Spain
TTITLE11=Sergio Mendes and Brazil '66 - The Look of Love
TTITLE12=Charlie Parker I'll Remember April
EXTD=YEAR: 2001
EXTT0=
EXTT1=
EXTT2=
EXTT3=
EXTT4=
EXTT5=
EXTT6=
EXTT7=
EXTT8=
EXTT9=
EXTT10=
EXTT11=
EXTT12=
PLAYORDER=
